<svg version="1.0" xmlns="http://www.w3.org/2000/svg" preserveAspectRatio="xMidYMid meet" viewBox="0 14.93 256 227.1">  <g transform="translate(0.000000,256.000000) scale(0.100000,-0.100000)" fill="#5b3c88" stroke="none"> <path d="M651 2384 c-19 -25 -21 -40 -21 -194 0 -154 2 -169 21 -194 16 -20 29 -26 59 -26 65 0 70 16 70 222 0 165 -2 180 -20 198 -30 30 -83 27 -109 -6z"></path> <path d="M1770 2390 c-19 -19 -20 -33 -20 -200 0 -167 1 -181 20 -200 27 -27 83 -27 110 2 19 20 20 34 20 198 0 164 -1 178 -20 198 -27 29 -83 29 -110 2z"></path> <path d="M180 2201 c-79 -17 -146 -76 -169 -150 -6 -21 -11 -102 -11 -180 l0 -141 1280 0 1280 0 0 141 c0 157 -9 201 -52 254 -58 70 -91 79 -283 80 l-170 0 -5 -120 c-6 -129 -15 -159 -67 -206 -91 -85 -216 -88 -306 -8 -61 53 -78 101 -85 232 l-5 107 -323 0 -324 0 0 -93 c0 -122 -18 -183 -71 -236 -90 -89 -244 -89 -325 1 -47 51 -58 88 -64 208 l-5 115 -130 1 c-71 1 -146 -1 -165 -5z"></path> <path d="M0 948 c0 -591 2 -636 19 -673 23 -51 89 -111 138 -124 53 -15 2193 -15 2246 0 49 13 115 73 138 124 17 37 19 82 19 673 l0 632 -1280 0 -1280 0 0 -632z m810 377 c52 -27 52 -106 0 -132 -33 -17 -328 -18 -364 -2 -36 17 -54 65 -35 98 25 44 52 51 217 51 117 0 160 -4 182 -15z m650 0 c34 -17 47 -55 34 -94 -16 -44 -45 -51 -222 -51 l-164 0 -29 29 c-33 33 -36 56 -13 89 25 36 48 41 212 41 118 1 160 -2 182 -14z m671 -14 c26 -31 25 -83 -2 -107 -19 -17 -41 -19 -191 -22 -143 -3 -173 -1 -194 13 -35 22 -47 60 -32 93 23 47 48 53 231 50 164 -3 169 -4 188 -27z m-1304 -343 c31 -29 30 -72 -2 -103 -24 -25 -27 -25 -200 -25 -173 0 -176 0 -200 25 -14 13 -25 36 -25 50 0 14 11 37 25 50 24 25 26 25 201 25 169 0 179 -1 201 -22z m650 0 c33 -30 31 -80 -3 -107 -25 -19 -40 -21 -199 -21 -193 0 -209 5 -221 67 -5 26 -1 37 19 57 26 26 26 26 203 26 169 0 179 -1 201 -22z m653 2 c27 -27 26 -77 -2 -107 -21 -22 -27 -23 -194 -23 -95 0 -180 3 -189 6 -24 10 -46 60 -39 89 12 50 33 55 226 55 165 0 180 -2 198 -20z m-1305 -345 c31 -30 32 -71 3 -102 -21 -22 -26 -23 -204 -23 l-183 0 -20 26 c-28 35 -26 69 4 99 24 25 27 25 200 25 173 0 176 0 200 -25z m650 0 c31 -30 33 -77 5 -105 -19 -19 -33 -20 -204 -20 l-185 0 -20 26 c-12 15 -21 33 -21 40 0 25 22 62 44 72 12 6 95 11 189 11 165 1 168 1 192 -24z m649 4 c33 -26 36 -79 6 -109 -19 -19 -33 -20 -203 -20 -163 0 -186 2 -199 18 -36 40 -28 99 16 120 12 6 95 11 187 11 154 1 168 -1 193 -20z"></path> </g> </svg>